<?xml version="1.0" standalone="no"?>
<!DOCTYPE svg PUBLIC "-//W3C//DTD SVG 20010904//EN"
 "http://www.w3.org/TR/2001/REC-SVG-20010904/DTD/svg10.dtd">
<svg version="1.0" xmlns="http://www.w3.org/2000/svg"
 width="512.000000pt" height="512.000000pt" viewBox="0 0 512.000000 512.000000"
 preserveAspectRatio="xMidYMid meet">

<g transform="translate(0.000000,512.000000) scale(0.100000,-0.100000)"
fill="#000000" stroke="none">
<path d="M1123 4557 l-1123 -562 0 -1435 0 -1435 1125 -563 1125 -562 310 0
310 0 1125 562 1125 563 0 1435 0 1435 -1125 563 -1125 562 -313 -1 -312 0
-1122 -562z m1312 -29 l45 -22 0 -231 0 -230 -720 -360 -720 -360 0 -765 0
-765 760 -380 760 -380 760 380 760 380 0 682 c0 376 -2 683 -5 683 -3 0 -234
-115 -515 -255 l-510 -255 -45 22 -45 22 0 231 0 230 640 320 640 320 160 -80
160 -80 0 -1075 0 -1075 -1000 -500 -1000 -500 -1000 500 -1000 500 0 1075 0
1075 913 457 c501 251 913 457 914 457 1 1 23 -9 48 -21z m0 -960 l45 -22 0
-756 0 -757 41 -18 41 -19 474 237 474 237 45 -22 45 -22 0 -231 0 -230 -520
-260 -520 -260 -280 140 -280 140 0 835 0 835 193 97 c105 53 193 97 194 97 1
1 23 -9 48 -21z"/>
</g>
</svg>
